<?xml version="1.0" encoding="UTF-8"?>
<svg id="Camada_1" xmlns="http://www.w3.org/2000/svg" version="1.1" viewBox="0 0 16 16">
  <!-- Generator: Adobe Illustrator 29.5.0, SVG Export Plug-In . SVG Version: 2.1.0 Build 137)  -->
  <defs>
    <style>
      .st0 {
        fill: #fff;
      }
    </style>
  </defs>
  <path class="st0" d="M12.53,4.53c.28-.3.27-.78-.04-1.06-.29-.27-.73-.27-1.02,0l1.06,1.06ZM3.47,11.47c-.3.28-.32.76-.04,1.06.28.3.76.32,1.06.04.01-.01.03-.02.04-.04l-1.06-1.06ZM4.53,3.47c-.3-.28-.78-.27-1.06.04-.27.29-.27.73,0,1.02l1.06-1.06ZM11.47,12.53c.28.3.76.32,1.06.04s.32-.76.04-1.06c-.01-.01-.02-.03-.04-.04l-1.06,1.06ZM11.47,3.47L3.47,11.47l1.06,1.06,8-8-1.06-1.06ZM3.47,4.53l8,8,1.06-1.06L4.53,3.47l-1.06,1.06Z"/>
</svg>