<?xml version="1.0" encoding="UTF-8"?>
<svg id="Camada_1" xmlns="http://www.w3.org/2000/svg" version="1.1" viewBox="0 0 24 24">
  <!-- Generator: Adobe Illustrator 29.5.0, SVG Export Plug-In . SVG Version: 2.1.0 Build 137)  -->
  <defs>
    <style>
      .st0 {
        fill: #fff;
      }
    </style>
  </defs>
  <path class="st0" d="M22.79,15.18c-1.13-.66-1.83-1.87-1.83-3.18,0-1.31.7-2.52,1.83-3.18.2-.12.27-.37.15-.56l-2.04-3.52c-.07-.13-.2-.21-.34-.21-.07,0-.15.02-.21.06-.56.32-1.19.49-1.83.49-.65,0-1.29-.17-1.86-.5-1.13-.65-1.83-1.86-1.83-3.16,0-.23-.18-.41-.4-.42h0s-4.84,0-4.84,0c-.23,0-.41.19-.4.42,0,1.31-.7,2.51-1.83,3.16-.57.33-1.21.5-1.86.5-.64,0-1.27-.17-1.83-.49-.18-.11-.42-.06-.54.12,0,0,0,.01-.01.02l-2.05,3.52c-.03.06-.05.13-.05.2,0,.15.08.29.21.37,1.13.65,1.83,1.86,1.83,3.17,0,1.32-.7,2.53-1.82,3.19h-.01c-.2.12-.27.37-.15.56l2.04,3.52c.07.13.2.21.34.21.07,0,.15-.02.21-.06,1.15-.65,2.55-.65,3.69.01,1.13.66,1.82,1.86,1.82,3.16,0,.23.18.42.42.42h4.84c.23,0,.41-.19.4-.42,0-1.31.7-2.51,1.83-3.17.56-.33,1.2-.5,1.86-.5.64,0,1.27.17,1.83.49.18.11.42.06.54-.12,0,0,0-.01.01-.02l2.05-3.52c.03-.06.05-.13.05-.2,0-.15-.08-.29-.21-.37M12,15.67c-2.02,0-3.66-1.63-3.67-3.65,0,0,0,0,0-.01,0-2.02,1.63-3.66,3.65-3.67,0,0,0,0,.01,0,2.02,0,3.66,1.63,3.67,3.65,0,0,0,0,0,.01,0,2.02-1.63,3.66-3.65,3.67,0,0,0,0-.01,0"/>
</svg>