<?xml version="1.0" encoding="UTF-8"?>
<svg id="Camada_2" data-name="Camada 2" xmlns="http://www.w3.org/2000/svg" xmlns:xlink="http://www.w3.org/1999/xlink" viewBox="0 0 512 506.15">
  <defs>
    <style>
      .cls-1 {
        fill: #79161b;
      }

      .cls-2 {
        fill: #f9b770;
      }

      .cls-3 {
        fill: #ccbdb0;
      }

      .cls-4 {
        fill: url(#Gradiente_sem_nome_180);
      }

      .cls-5 {
        fill: #9f1832;
      }

      .cls-6 {
        fill: #db461d;
      }

      .cls-7 {
        fill: #c36527;
      }

      .cls-8 {
        fill: #8cc266;
      }

      .cls-9 {
        fill: url(#Gradiente_sem_nome_179);
      }

      .cls-10 {
        fill: #ca2e2f;
      }

      .cls-11 {
        fill: #f0e6d2;
      }

      .cls-12 {
        fill: #b0321a;
      }

      .cls-13 {
        fill: #133830;
      }

      .cls-14 {
        fill: #295d36;
      }

      .cls-15 {
        fill: #95b247;
      }

      .cls-16 {
        fill: #dc7521;
      }

      .cls-17 {
        fill: #ec8f2b;
      }

      .cls-18 {
        fill: #fdfcea;
      }

      .cls-19 {
        fill: #22723c;
      }

      .cls-20 {
        fill: #bcb7b8;
      }

      .cls-21 {
        fill: #509266;
      }

      .cls-22 {
        fill: #497c2f;
      }

      .cls-23 {
        fill: #ec6250;
      }

      .cls-24 {
        fill: #ba481e;
      }

      .cls-25 {
        fill: #eeaaa4;
      }

      .cls-26 {
        fill: #d45357;
      }

      .cls-27 {
        fill: #f3f2f3;
      }

      .cls-28 {
        fill: #efe6d1;
      }

      .cls-29 {
        fill: #f39e84;
      }

      .cls-30 {
        fill: #b2d178;
      }

      .cls-31 {
        fill: #004931;
      }

      .cls-32 {
        fill: #db7c84;
      }

      .cls-33 {
        fill: #ec632e;
      }

      .cls-34 {
        fill: #c6ca7e;
      }

      .cls-35 {
        fill: #d8d8d9;
      }

      .cls-36 {
        fill: #e9d6ba;
      }

      .cls-37 {
        fill: #7ebc50;
      }

      .cls-38 {
        fill: #f4a23f;
      }

      .cls-39 {
        fill: #f5b346;
      }

      .cls-40 {
        fill: #c6707c;
      }

      .cls-41 {
        fill: #ce949a;
      }

      .cls-42 {
        fill: #41ad52;
      }

      .cls-43 {
        fill: #fad17b;
      }

      .cls-44 {
        fill: url(#Gradiente_sem_nome_178);
      }

      .cls-45 {
        fill: #123730;
      }

      .cls-46 {
        fill: #479c43;
      }

      .cls-47 {
        fill: #6c9636;
      }

      .cls-48 {
        fill: #f9c7ae;
      }
    </style>
    <linearGradient id="Gradiente_sem_nome_179" data-name="Gradiente sem nome 179" x1="83.98" y1="34.24" x2="75.74" y2="186.43" gradientUnits="userSpaceOnUse">
      <stop offset="0" stop-color="#f5a682"/>
      <stop offset="1" stop-color="#f4c0a3"/>
    </linearGradient>
    <linearGradient id="Gradiente_sem_nome_178" data-name="Gradiente sem nome 178" x1="462.09" y1="18.81" x2="484.85" y2="188.75" gradientUnits="userSpaceOnUse">
      <stop offset="0" stop-color="#d99c89"/>
      <stop offset="1" stop-color="#ebc0a9"/>
    </linearGradient>
    <linearGradient id="Gradiente_sem_nome_180" data-name="Gradiente sem nome 180" x1="420.99" y1="62.05" x2="485.28" y2="162.27" gradientUnits="userSpaceOnUse">
      <stop offset="0" stop-color="#d07979"/>
      <stop offset="1" stop-color="#d8a27f"/>
    </linearGradient>
  </defs>
  <g id="Camada_1-2" data-name="Camada 1">
    <path class="cls-35" d="M270.42,291.83c-4.43-3.63-11.71-7.46-16.93-10.05v-28.58c6.22,12.59,13.87,24.69,16.93,38.63Z"/>
    <path class="cls-20" d="M299.53,302.94c.43.13.64.36,1.06.53,5.95,2.36,23.43,15.67,30.16,20.11,13.24,8.74,31.25,23.91,44.45,30.69l-29.64,14.29c-18.65-22.54-42.97-45.77-64.56-65.62h1.06c4.78,0,13-1.33,17.46,0Z"/>
    <path class="cls-1" d="M333.92,422.54c-2.3.41-10.85,6.2-14.29,7.41-24.76,8.74-46.2-2.4-66.15-16.41-.52-.74-.44-1.4-.79-2.12l-3.97,4.76c-22.64,12.11-33.88,23.23-61.92,13.23-2.44-.87-12.96-5.03-13.23-7.41-.02-.15-.03-.38,0-.53.07-.36,2.08-2.26,2.12-3.18,4.49,2.33,14.96,8.04,20.37,9,23.36,4.14,41.7-8.44,56.89-24.34,19.13,19.05,44.43,33.6,71.18,19.05,4.55-2.47,4.77-8.17,10.05-1.06.67.91,1.3.81-.26,1.59Z"/>
    <path class="cls-26" d="M175.69,418.31c-.03.91-2.05,2.82-2.12,3.18-1.43.27-2.15-.25-3.18-1.06-1.27-1-5.55-6.71-6.35-6.88.06-.22.48-1.03.53-1.06,7.45-4.86,6.94,3.65,11.11,5.82Z"/>
    <g>
      <path class="cls-27" d="M253.49,253.2v28.58c0,20.06-.45,40.24-.53,60.33-10.96,0-32.76-3.58-38.1,6.88-1.24,2.42-1.95,3.33-1.59,6.35,1.28,10.64,16.86,12.48,23.28,16.93.28.2,4.68,4.69,4.76,5.03.07.26-.9,2.78-.53,4.23,1.62,6.43,4.38,12.27,12.17,12.44-.1,2.99.21,6.03,0,9-15.19,15.9-33.53,28.49-56.89,24.34-5.42-.96-15.88-6.66-20.37-9-4.17-2.17-3.66-10.69-11.11-5.82-.3-.53-1.47-1.42-1.59-1.59-.31-.45-.83-1.18-1.06-1.59-.2-.36-.74-1.5-1.06-2.12-.5-.98-3.96-10.48-5.03-10.05-.08.83.74,1.78,0,2.65-.98,1.15-24.11,9.28-28.05,11.11-10.62,4.95-20.87,11-30.96,16.93-.18-.01-.35,0-.53,0-5.1,2.69-9.59,6.25-14.29,9.53-25,17.46-47.05,40.39-59.01,68.8,9.39-28.38,32.93-51.75,56.36-69.33,4.14-3.11,8.46-6.03,12.7-9,.49-.34,3.5-1.19,3.18-1.85-2.69-.47-5.65-3.9-7.94-4.5-3.73-.98-12.68,4.94-16.41,6.88-13.04,6.77-25.12,14.89-36.78,23.81-1.57-.17,1.47-2.54,1.59-2.65,8.48-7.62,21.54-15.35,31.49-21.17,5.46-3.2,11.04-6.34,16.93-8.73.26-.6-6.92-5.55-7.94-6.09-.86-.72-4.06-5.17-4.5-5.29-1.39-.4-16.53,7.12-19.05,8.47-17.38,9.28-33.1,21.74-47.36,35.19l11.91-12.44c15.89-13.44,33.7-24.45,52.66-33.07-2.24-8.87-10.91-3.52-17.2-1.32-18.31,6.39-36.53,16.14-52.66,26.72,18.5-15.39,42.19-24.33,64.56-32.81l-11.38-16.14-37.31,10.32,35.46-12.17-22.76-34.13c10.6,2.71,20.81,6.76,31.22,10.05,6.38,2.02,17.66,6.93,23.28,7.94,12.08,2.17,35.12-8.33,48.42-7.94,8.86-7.55,18.1-14.86,27.52-21.7,11.77-8.54,34.09-27.04,45.78-32.81.14-.07.39.07.53,0,5.08-2.42,12.45-3.84,17.99-4.76.15.81.15,3.45,1.85,3.18.71-.11,8.14-10.33,8.73-11.38,6.49-11.5,9.38-27.72,18.52-38.37.35.7.71,1.42,1.06,2.12Z"/>
      <g>
        <path class="cls-21" d="M92.08,427.83c-1.83-1.49-4.76-3.78-4.76-6.35,2.29.6,5.25,4.03,7.94,4.5.32.66-2.68,1.51-3.18,1.85Z"/>
        <g>
          <path class="cls-36" d="M132.04,357.45l32.55,6.61-10.85,11.91c-2.72-2.32-7.27-1.18-10.05-2.65-.8-.42-10.99-13.21-11.38-14.02-.25-.51-1.07-1.04-.26-1.85Z"/>
          <g>
            <path class="cls-25" d="M181.25,375.97c5.23-.37,4.88,10.96-1.06,9.53-3.8-.92-2.66-9.26,1.06-9.53Z"/>
            <path class="cls-25" d="M180.19,396.61c5.64-2.04,7.04,9.15,1.06,9.53-4.75.3-2.93-8.85-1.06-9.53Z"/>
            <path class="cls-25" d="M215.12,405.61c4.85-.75,6.12,4.38,2.12,6.88-7.32,4.57-7.69-6.02-2.12-6.88Z"/>
            <path class="cls-25" d="M211.94,386.03c5.38-.33,3.55,8.35,1.06,9-5.23,1.35-6.5-8.66-1.06-9Z"/>
            <path class="cls-25" d="M193.42,386.03c4.96-1.16,5.59,7.77,1.06,9-4.72-.32-4.25-8.25-1.06-9Z"/>
            <path class="cls-25" d="M195.54,402.96c6.57-.63,6.97,9.06,0,7.94l-1.85-1.85,1.85-6.09Z"/>
          </g>
        </g>
      </g>
    </g>
    <g>
      <path class="cls-23" d="M252.96,348.98c-.06,14.95.48,30.05,0,44.98-7.79-.17-10.55-6.01-12.17-12.44-.37-1.45.59-3.97.53-4.23-.08-.34-4.48-4.83-4.76-5.03.5-3.44,1.28-9.45-2.38-11.64-3.28-1.97-7.13-.37-10.05-1.06-1.8-.42-7.11-5.61-10.85-4.23-.36-3.02.35-3.93,1.59-6.35h38.1Z"/>
      <path class="cls-29" d="M252.96,342.1c0,2.29,0,4.59,0,6.88h-38.1c5.35-10.45,27.15-6.88,38.1-6.88Z"/>
      <path class="cls-10" d="M236.55,372.27c-6.42-4.45-22-6.29-23.28-16.93,3.74-1.37,9.05,3.81,10.85,4.23,2.92.69,6.78-.91,10.05,1.06,3.66,2.2,2.88,8.2,2.38,11.64Z"/>
      <path class="cls-26" d="M291.06,348.98c1.26,2.17,2.43,3.18,2.12,6.35-3.81-1.31-8.4,3.68-10.85,4.23-3.31.74-6.84-1.01-10.05,1.06-3.34,2.14-2.85,8.37-2.38,11.64-7.94,5.33-2.33,9.3-6.35,16.14-1.82,3.09-7.08,5.63-10.58,5.56.48-14.93-.06-30.03,0-44.98h38.1Z"/>
      <path class="cls-32" d="M291.06,348.98h-38.1c0-2.29,0-4.59,0-6.88,11.52,0,31.99-3.63,38.1,6.88Z"/>
      <path class="cls-1" d="M293.18,355.33c-1.08,10.93-16.96,12.68-23.28,16.93-.47-3.27-.96-9.5,2.38-11.64,3.22-2.06,6.75-.31,10.05-1.06,2.45-.55,7.03-5.54,10.85-4.23Z"/>
    </g>
    <g>
      <path class="cls-35" d="M270.42,291.83c3.49,2.85,7.13,7.94,10.58,11.11,21.6,19.85,45.91,43.08,64.56,65.62,2.85,3.45,6.94,7.11,7.14,11.64,32.12,3.04,61.29,8.34,91.82,18.52,23.55,7.86,48.53,16.94,67.47,33.34-20.71-15.02-44.84-24.02-69.06-31.75-29.36-9.37-60.15-16.39-91.02-15.08l-.79,10.85c25.55,2.98,51.07,12.05,74.35,22.76,17.3,7.96,33.71,17.48,48.42,29.64l5.29,6.35c-16.23-14.99-35.74-25.54-55.83-34.4-22.88-10.09-46.81-18.9-71.71-22.23,21.51,6.76,43.51,15.65,62.71,27.52,29.19,18.04,61.02,47.61,72.76,80.44-11.98-26.02-30.67-47.42-53.45-64.56-3.33-2.51-17.24-12.8-20.11-13.76-1.41-.47-1.47-.48-2.91,0,1.06-1.5.29-1.42-.79-2.12-6.42-4.15-17.26-9.51-24.34-12.7-3.95-1.78-34.19-13.89-35.99-13.23-.96.36-2.19,6.14-3.44,7.14l.79.79c18.51,5.39,36.55,15.17,52.13,26.46-.24,1.05-1.64.51-2.12,1.06-15.94-10.86-33.24-20.55-52.13-25.4,3.99,3.95,10.84,5.96,15.88,9,10.5,6.34,20.65,14.18,29.9,22.23,19.72,17.16,37.37,38.12,45.25,63.5-11.27-25.74-26.79-44.41-47.89-62.45-12.75-10.89-29.71-24.99-45.51-29.11-1.25-.32-5.26-2.17-5.56-2.12-1.25.24-3.76,7.1-3.44,8.2.26.92,2.32,1.08,2.65,1.32,6.13,4.52,31.47,27.23,34.4,32.81.29.55.58.94,1.06,1.32l-.79.79c-1.28-.07-2.02-.71-3.44-.53-1.21-1.41.98-.84.53-1.85-.49-1.1-10.65-10.7-12.44-12.44-6.36-6.15-13.27-11.79-19.58-17.99-.98.82-1.76-.02-1.85,0,1.57-.77.94-.68.26-1.59-5.29-7.12-5.51-1.41-10.05,1.06-26.75,14.55-52.05,0-71.18-19.05.21-2.96-.1-6.01,0-9,3.51.07,8.77-2.47,10.58-5.56,4.02-6.84-1.59-10.81,6.35-16.14,6.33-4.25,22.21-6,23.28-16.93.31-3.17-.86-4.18-2.12-6.35-6.12-10.51-26.59-6.88-38.1-6.88.08-20.09.53-40.27.53-60.33,5.22,2.59,12.5,6.43,16.93,10.05Z"/>
      <g>
        <path class="cls-41" d="M324.13,376.5c5.32-1.45,6.98,8.26,2.65,9-5.45.92-5.75-8.15-2.65-9Z"/>
        <path class="cls-41" d="M324.66,396.61c5.07-1.18,4.95,8.07,2.65,9-6.39,1.72-6.87-8.01-2.65-9Z"/>
        <path class="cls-41" d="M289.74,405.61c6.01-1.78,9.45,9.36,1.06,7.41-3.58-.83-4.4-6.42-1.06-7.41Z"/>
        <path class="cls-41" d="M293.97,386.03c5.27-.18,6.06,6.46,2.65,9-5.27.18-6.06-6.46-2.65-9Z"/>
        <path class="cls-41" d="M311.43,386.03c5.35-1.75,6.44,7.48,2.65,8.47-4.87,1.26-5.85-7.42-2.65-8.47Z"/>
        <path class="cls-41" d="M309.32,402.96c5.47-1.42,6.29,10.2-.53,7.94-3.07-1.02-1.9-7.31.53-7.94Z"/>
      </g>
    </g>
    <path class="cls-40" d="M342.39,413.02l-6.35,7.41c-.32-.24-2.38-.41-2.65-1.32-.32-1.1,2.19-7.96,3.44-8.2.29-.06,4.31,1.79,5.56,2.12Z"/>
    <path class="cls-20" d="M319.64,429.95c-8.18,9.61-16.69,19.49-26.46,27.52-11.46-15.53-28.79-28.2-39.69-43.92,19.95,14,41.39,25.14,66.15,16.41Z"/>
    <path class="cls-36" d="M251.9,415.13l-38.63,42.34c-6.98-5.76-17.28-16.15-23.28-23.02-1.09-1.25-3.08-3.3-3.18-5.03,28.04,10,39.28-1.12,61.92-13.23.64-.34,2.46-1.45,3.18-1.06Z"/>
    <g>
      <path class="cls-20" d="M479.98,347.4l-22.76,33.34c-17.56-3.73-37.36-6.43-55.3-7.41-15.39-.84-33.17-1.43-47.89,2.38,34.39-1.13,67.93.27,101.61,7.14l-11.11,15.88c-30.53-10.19-59.7-15.49-91.82-18.52-.21-4.53-4.29-8.19-7.14-11.64l29.64-14.29c5.4,2.77,44.07,11.61,49.48,11.11,2.46-.23,7.63-2.9,10.32-3.7,12.97-3.87,25.72-8.68,38.63-12.7,2.05-.64,4.24-1.17,6.35-1.59Z"/>
      <path class="cls-20" d="M367.26,454.82c-30.73,3.85-63.62,13.49-94.73,18.52-.51-.93,2.84-3.26,3.44-3.7,5.65-4.16,11.76-7.7,17.2-12.17,9.77-8.03,18.28-17.91,26.46-27.52,3.44-1.21,11.99-6.99,14.29-7.41.09-.02.87.82,1.85,0,6.31,6.2,13.22,11.84,19.58,17.99,1.79,1.73,11.94,11.33,12.44,12.44.45,1.01-1.74.44-.53,1.85Z"/>
      <path class="cls-36" d="M186.81,429.42c.1,1.73,2.08,3.78,3.18,5.03,6.01,6.87,16.3,17.26,23.28,23.02,5.82,4.8,13.84,8.56,19.32,13.23.89.76,1.58,1.33,1.32,2.65-31.2-5.27-62.1-12.93-93.14-19.05,10.38-11.37,20.79-22.56,32.81-32.28.27,2.38,10.79,6.54,13.23,7.41Z"/>
      <path class="cls-20" d="M253.49,413.55c10.9,15.72,28.23,28.4,39.69,43.92-5.44,4.47-11.55,8.01-17.2,12.17-.6.44-3.95,2.78-3.44,3.7-5.79.94-14.09,3.19-19.58,3.18l-1.06-61.39c-.71-.39-2.53.71-3.18,1.06l3.97-4.76c.36.71.28,1.37.79,2.12Z"/>
      <path class="cls-36" d="M252.96,476.52c-5.31-.02-13.45-2.23-19.05-3.18.25-1.31-.44-1.89-1.32-2.65-5.48-4.67-13.49-8.43-19.32-13.23l38.63-42.34,1.06,61.39Z"/>
      <path class="cls-20" d="M442.94,400.32l-4.23,5.29c-27.34-11.1-56.67-18.01-86.26-19.32,29.16,5.12,57.64,10.55,85.2,21.43-3.7,4.36-7.7,7.55-12.17,11.11-23.28-10.71-48.8-19.78-74.35-22.76l.79-10.85c30.87-1.3,61.67,5.72,91.02,15.08Z"/>
      <path class="cls-20" d="M387.9,442.12l-17.46,11.11c-2.93-5.58-28.27-28.3-34.4-32.81l6.35-7.41c15.8,4.11,32.76,18.21,45.51,29.11Z"/>
      <path class="cls-20" d="M410.66,427.83c-2.25.75-7.52,6.28-10.58,6.88-.2-.15-.86-.38-1.06-.53-15.57-11.29-33.61-21.07-52.13-26.46l-.79-.79c1.25-1,2.48-6.79,3.44-7.14,1.8-.66,32.03,11.45,35.99,13.23,7.09,3.19,17.92,8.55,24.34,12.7,1.08.7,1.85.62.79,2.12Z"/>
      <path class="cls-20" d="M423.36,420.42l-9,5.29c-19.2-11.86-41.2-20.76-62.71-27.52,24.89,3.32,48.83,12.14,71.71,22.23Z"/>
      <path class="cls-35" d="M457.23,380.73c2.89.61,39.65,9.58,38.1,12.97-12.98-4.52-26.21-8.1-39.69-10.85-33.67-6.88-67.22-8.27-101.61-7.14,14.72-3.81,32.5-3.22,47.89-2.38,17.94.98,37.74,3.68,55.3,7.41Z"/>
      <path class="cls-20" d="M396.9,435.24c-.05.06-.04,1.15-.53,1.59-1.86,1.67-3.9,2.7-5.82,4.23-9.25-8.05-19.4-15.89-29.9-22.23-5.03-3.04-11.89-5.04-15.88-9,18.89,4.85,36.18,14.55,52.13,25.4Z"/>
      <path class="cls-18" d="M173.58,421.48c-.03.15-.02.38,0,.53-12.02,9.72-22.43,20.91-32.81,32.28-.08.09-1.77,1.02-2.12,1.06.15-.32,0-1.15.53-2.12.12-.22.28-1.49.53-1.85,6.97-10.17,23.2-20.44,30.69-30.96,1.02.81,1.74,1.33,3.18,1.06Z"/>
      <path class="cls-28" d="M164.58,412.49s-.47.83-.53,1.06c-6.05-1.27-37.7,24.39-43.92,29.11-.32.24-1.09.41-1.06,1.06-.18.05-.4-.06-.53,0-.12-.61.18-1.68,0-2.12-.29-.71-.5-.5-.53-.53,14.04-11.37,28.26-22.83,44.98-30.16.11.17,1.29,1.06,1.59,1.59Z"/>
      <path class="cls-36" d="M160.88,407.19c-18.63,6.45-35.97,15.92-51.86,27.52-.12-.08-.4.08-.53,0-1.77-1.13-10.48-6.81-11.64-6.88,10.09-5.93,20.34-11.98,30.96-16.93,3.93-1.83,27.07-9.97,28.05-11.11.74-.87-.08-1.81,0-2.65,1.07-.43,4.53,9.08,5.03,10.05Z"/>
      <path class="cls-36" d="M162.99,410.9c-16.72,7.33-30.94,18.79-44.98,30.16-.41-.48-4.84-3.56-5.82-4.23-.05-.03-.48-1.03-.53-1.06,15.39-11.16,32.39-19.94,50.27-26.46.23.41.75,1.14,1.06,1.59Z"/>
      <path class="cls-28" d="M161.93,409.31c-17.88,6.52-34.88,15.3-50.27,26.46-.12-.08-1.43-.26-2.65-1.06,15.89-11.59,33.23-21.07,51.86-27.52.32.62.85,1.76,1.06,2.12Z"/>
      <path class="cls-36" d="M164.05,413.55c.8.17,5.08,5.88,6.35,6.88-7.5,10.52-23.73,20.79-30.69,30.96-.25.36-.41,1.64-.53,1.85l-19.05-10.58c6.23-4.72,37.87-30.37,43.92-29.11Z"/>
    </g>
    <g>
      <path class="cls-3" d="M282.06,302.94h-1.06c-3.45-3.17-7.1-8.26-10.58-11.11-3.06-13.94-10.71-26.05-16.93-38.63-.35-.7-.71-1.42-1.06-2.12-.07-.14.07-.39,0-.53.64-.22.79-1.07,1.06-1.59,13.29-25.87,27.96-55.82,39.16-82.56l-10.58,136.53Z"/>
      <path class="cls-28" d="M252.43,250.55c.07.14-.07.39,0,.53-9.14,10.65-12.03,26.86-18.52,38.37-.59,1.05-8.02,11.26-8.73,11.38-1.7.27-1.7-2.36-1.85-3.18-7.36-38.78-4.11-87.02-10.58-126.48,12.42,26.86,26.55,52.9,39.69,79.38Z"/>
      <g>
        <path class="cls-38" d="M205.86,152.12c-6.83,20.33-12.07,41.37-18.26,61.92-3.96-13.5-8.42-23.74-16.14-35.46,1.06-2-.42-4.21,0-6.09.08-.36,2.13-3.76,2.65-6.35,2.61-12.96,12.56-57.79,11.64-68-.11-1.19-.97-3.97-1.59-4.76l63.77-8.47c11.7-.55,62.84,3.81,72.24,7.94-2.38,2.33,2.92,6.55,3.18,9.26l6.35,69.06c-7.2-3.38-24.19-22.27-31.22-22.23-.35,0-.71,0-1.06,0l-43.66-61.39"/>
        <path class="cls-11" d="M252.96,151.59l.79-64.03-47.89,64.56c1.61,6.35,5.82,12.6,6.88,19.05,12.42,26.86,26.55,52.9,39.69,79.38.64-.22.79-1.07,1.06-1.59-.93-32.42-.58-64.93-.53-97.37"/>
        <path class="cls-3" d="M292.65,166.41c-11.2,26.73-25.87,56.69-39.16,82.56-.93-32.42-.58-64.93-.53-97.37,14.66-.19,30.79-2.44,44.45-2.65"/>
        <path class="cls-20" d="M297.41,148.95c-13.67.21-29.79,2.46-44.45,2.65.04-21.32-.69-42.75.79-64.03l43.66,61.39Z"/>
      </g>
      <path class="cls-36" d="M314.87,210.33l10.05-2.12c11.62-3.65,23.33-7.31,34.93-11.11l53.98,39.69c-32.27-5.43-56.33-25.13-89.17-6.35-25.77,14.74-27.14,45.88-25.14,72.5-4.47-1.33-12.68,0-17.46,0l10.58-136.53c1.82-4.35,1.41-13.94,4.76-17.46"/>
      <g>
        <path class="cls-27" d="M131.77,129.37c3.22,3.67,6.38,7.39,9.53,11.11,10.04,11.9,21.64,25.17,30.16,38.1,7.72,11.72,12.18,21.96,16.14,35.46,6.19-20.55,11.42-41.59,18.26-61.92,1.61,6.35,5.82,12.6,6.88,19.05,6.47,39.46,3.23,87.7,10.58,126.48-5.54.92-12.91,2.34-17.99,4.76,3.22-27.4,2.11-57.07-24.61-71.97-31.86-17.77-56.76.06-88.11,7.41-.34-.03-.72-.03-1.06,0l52.92-40.22c11.71,3.62,23.49,6.97,34.93,11.38l-51.07-45.78,59.27,50.8c-8.43-28.93-29.76-49.25-47.89-71.97-2.82-3.53-5.63-7.07-8.47-10.58-6.69-8.27-13.31-16.69-20.11-24.87,6.83,7.59,13.91,15.09,20.64,22.76Z"/>
        <g>
          <path class="cls-33" d="M32.28,1.3c9.68,5.23,25.75,19.81,35.72,26.99,30.87,22.24,61.98,44.24,92.87,66.41l-1.06,2.38c-8.72,11.21-18.05,22.17-28.05,32.28-6.73-7.67-13.81-15.17-20.64-22.76-13.95-16.78-27.96-33.58-42.34-50.01-8.43-9.64-25.32-31.61-34.4-38.37l-11.11-12.7c2.76-4.73,3.46-7.23,9-4.23Z"/>
          <path class="cls-48" d="M34.4,18.23c-.87-.65-1.67-1.29-2.38-2.12,2.98,60.21,11.84,120.06,18.79,179.93-3.55,2.58-6.82,5.65-10.58,7.94-9.9-51.56-18.16-117.21-19.58-169.61-.24-9.01-1.54-21.67,2.65-28.84l11.11,12.7Z"/>
          <path class="cls-39" d="M169.34,83.33c-2.71,4.89-6.1,9.36-9.53,13.76l1.06-2.38c-30.9-22.17-62-44.17-92.87-66.41C58.03,21.11,39.56,4.48,28.96,0l10.99.24c42.51,28.57,86.81,54.66,129.39,83.08Z"/>
          <path class="cls-38" d="M184.16,93.38c.62.79,1.48,3.57,1.59,4.76l-44.45,42.34c-3.15-3.73-6.31-7.45-9.53-11.11,9.99-10.12,19.33-21.07,28.05-32.28,3.42-4.4,6.82-8.86,9.53-13.76,2.63,1.76,13.51,8.39,14.82,10.05Z"/>
          <path class="cls-43" d="M185.75,98.14c.91,10.21-9.04,55.04-11.64,68-.52,2.59-2.57,5.99-2.65,6.35-.42,1.87,1.06,4.09,0,6.09-8.52-12.93-20.12-26.2-30.16-38.1l44.45-42.34Z"/>
          <path class="cls-9" d="M34.4,18.23c9.08,6.75,25.96,28.73,34.4,38.37,14.37,16.43,28.38,33.23,42.34,50.01,6.8,8.18,13.95,14.48,20.64,22.76l-7.94,7.41-73.82-25.93,21.96,69.33c-6.43,6.13-14.04,10.69-21.17,15.88-6.94-59.86-15.81-119.71-18.79-179.93.71.83,1.51,1.47,2.38,2.12Z"/>
          <path class="cls-39" d="M144.47,197.63c-5.53-1.71-23.43-8.9-27.78-9-.32,0-3.79.96-3.97,1.06-5.56-1.39-11.31-1.58-16.93-2.65l45.51-46.57c23.28,25.18,39.69,45.69,46.3,73.56l-5.95-4.24-2.25-.79c-11.44-4.41-23.22-7.76-34.93-11.38Z"/>
          <path class="cls-10" d="M123.83,136.77l-51.33,43.39c-.18.01-.35-.01-.53,0l-21.96-69.33,73.82,25.93Z"/>
          <path class="cls-38" d="M131.77,129.37c2.84,3.51,6.71,7.58,9.53,11.11l-45.51,46.57c-.35-.07-.74.76-1.85.53-4.49-.92-18.21-7.66-21.43-7.41l51.33-43.39,7.94-7.41Z"/>
        </g>
        <g>
          <path class="cls-38" d="M198.98,293.42c2.09,2.9,3.79,6.06,5.82,9-11.68,5.77-34.01,24.27-45.78,32.81-9.42,6.84-18.65,14.15-27.52,21.7-13.3-.39-36.34,10.1-48.42,7.94l-2.91-45.51c-15.91,3.62-31.53,8.9-47.36,12.7-1.84.44-3.37.77-5.29.53-.52-8.77-.75-17.67-1.06-26.46l51.33-26.46,72.76,36.51,48.42-22.76Z"/>
          <path class="cls-43" d="M86.26,240.5c-13.66,7.24-27.48,17.64-41.01,25.4l60.06-20.11c2.5,3.73,4.31,13.88,6.35,18.79,13.01,31.3,37.83,39.7,69.59,30.43,2.81-.82,14.09-6.38,15.61-5.56.34.19,1.77,3.48,2.12,3.97l-48.42,22.76-72.76-36.51-52.92-4.76c.07-1.23.47-2.03.53-2.65,17.1-16.57,36.56-30.5,54.51-46.04l6.35,14.29Z"/>
          <path class="cls-43" d="M95.79,187.05c5.62,1.07,11.37,1.25,16.93,2.65-2.21,1.23-16.81,22.07-21.17,26.46-15.99,1.47-39.83-1.15-55.57-1.32-.29-3.55,2.76-8.38,4.23-10.85,3.76-2.29,7.03-5.35,10.58-7.94,7.13-5.18,14.74-9.75,21.17-15.88.18-.01.35.01.53,0,3.22-.26,16.94,6.49,21.43,7.41,1.12.23,1.5-.6,1.85-.53Z"/>
          <path class="cls-38" d="M42.87,213.51c15.73.18,32.7,4.12,48.69,2.65-3.61,3.64-7.77,6.71-11.64,10.05-17.95,15.54-37.41,29.47-54.51,46.04,1.71-18.84,8.76-38.41,10.58-57.42,1.01-1.77,4.98-1.34,6.88-1.32Z"/>
          <path class="cls-16" d="M77.79,279.66l-51.33,26.46c-.35-9.96-2.12-21.61-1.59-31.22l52.92,4.76Z"/>
          <path class="cls-38" d="M59.8,356.92c-10.41-3.29-20.62-7.34-31.22-10.05-1.51-4.22-.79-9.73-1.06-14.29,1.92.24,3.45-.09,5.29-.53l26.99,24.87Z"/>
          <path class="cls-33" d="M83.08,364.86c-5.62-1.01-16.9-5.92-23.28-7.94l-26.99-24.87c15.83-3.8,31.45-9.08,47.36-12.7l2.91,45.51Z"/>
          <path class="cls-43" d="M144.47,197.63l-52.92,40.22c-1.61.14-3.66,1.78-5.29,2.65l-6.35-14.29c3.87-3.35,8.03-6.42,11.64-10.05,4.36-4.39,18.96-25.23,21.17-26.46.18-.1,3.65-1.07,3.97-1.06,4.35.09,22.25,7.29,27.78,9Z"/>
          <path class="cls-16" d="M91.55,237.85c.34-.03.72-.03,1.06,0,2.59.23,11.16,5.64,12.7,7.94l-60.06,20.11c13.53-7.76,27.36-18.16,41.01-25.4,1.63-.86,3.68-2.51,5.29-2.65Z"/>
          <g>
            <path class="cls-13" d="M205.33,302.41c-.14.07-.39-.07-.53,0-2.03-2.94-3.73-6.1-5.82-9-.35-.49-1.77-3.78-2.12-3.97-1.52-.82-12.8,4.74-15.61,5.56-31.76,9.27-56.58.87-69.59-30.43-2.04-4.9-3.85-15.06-6.35-18.79-1.54-2.3-10.11-7.71-12.7-7.94,31.35-7.35,56.25-25.18,88.11-7.41,26.71,14.9,27.83,44.57,24.61,71.97Z"/>
            <g>
              <path class="cls-19" d="M156.64,229.38c-.27,17.68.86,35.24,0,52.92-3.12-.06-9.94-6.87-11.64-9.53-1.44-2.25-2.4-4.84-3.18-7.41-.98-3.22-.62-7.13-1.59-9.53l13.23-18.26c-6.65-6.36-7.14-4.6-12.17.79l-10.58-4.76c8.38-4.55,16.59-5.78,25.93-4.23Z"/>
              <path class="cls-31" d="M164.58,232.03c3.26,2.99,6.82,14.56,7.41,19.05.69,5.27.99,10.75-.53,15.88-.11.36-2.23,4.08-2.65,4.76-1.66,2.74-9.02,10.65-12.17,10.58.86-17.68-.27-35.24,0-52.92,2.64.44,5.83.71,7.94,2.65Z"/>
              <path class="cls-19" d="M195.8,260.61c-7.05-5.37-15.35-7.38-23.81-9.53-.59-4.49-5.78-17.16-9.03-20.15,4.26,1.09,32.97,13.43,32.85,29.68Z"/>
              <path class="cls-8" d="M180.99,286.54c-7.33,5.15-15.82,7.92-24.87,7.94.02-4.03.33-8.14.53-12.17,3.16.07,10.51-7.84,12.17-10.58l12.17,14.82Z"/>
              <path class="cls-30" d="M156.64,282.3c-.2,4.03-.51,8.14-.53,12.17-9.43.02-16.17-2.52-23.28-8.47l12.17-13.23c1.71,2.65,8.52,9.46,11.64,9.53Z"/>
              <path class="cls-42" d="M195.8,260.61c-.04,5.01-.53,5.74-2.12,10.05l-9.26-3.18-12.97-.53c1.52-5.12,1.22-10.61.53-15.88,8.46,2.14,16.77,4.16,23.81,9.53Z"/>
              <path class="cls-37" d="M137.59,253.73c.58.65,2,.51,2.65,2.12.97,2.39.61,6.31,1.59,9.53l-17.99,9.53c-2.61-4.45-5.09-8.44-5.82-13.76l19.58-7.41Z"/>
              <path class="cls-37" d="M193.69,270.66c-2.61,7.1-6.57,11.57-12.7,15.88l-12.17-14.82c.42-.69,2.54-4.4,2.65-4.76l12.97.53,9.26,3.18Z"/>
              <path class="cls-8" d="M145,272.78l-12.17,13.23c-4.62-3.87-6.02-6.05-9-11.11l17.99-9.53c.78,2.57,1.73,5.16,3.18,7.41Z"/>
              <path class="cls-46" d="M130.71,233.62l10.58,4.76c-2.7,2.9-5.35,6.65-7.41,10.05-4.78-4.69-9.34-1.45-14.82-.53,2.19-8.73,4.15-10.23,11.64-14.29Z"/>
              <path class="cls-42" d="M133.89,248.44c.26.25,1.76,3.13,3.7,5.29l-19.58,7.41c-.64-4.65-.08-8.69,1.06-13.23,5.47-.92,10.04-4.16,14.82.53Z"/>
              <path class="cls-27" d="M140.24,255.84c-.65-1.61-2.06-1.46-2.65-2.12-1.94-2.17-3.45-5.04-3.7-5.29,2.06-3.4,4.71-7.16,7.41-10.05,5.03-5.39,5.52-7.15,12.17-.79l-13.23,18.26Z"/>
            </g>
          </g>
        </g>
      </g>
      <g>
        <path class="cls-6" d="M485.8,3.42c-2.55,4.02-5.35,8.05-8.47,11.64-26.01,29.95-53.47,58.74-79.38,88.91-7.41,7.57-14.59,15.43-21.7,23.28-10.74-10.01-18.68-22.35-27.52-33.87L477.87.24c2.94.27,5.81,1.08,7.94,3.18Z"/>
        <path class="cls-44" d="M488.98,8.18c.54,24.79-1.91,49.68-4.23,74.35-3.79,40.27-9.29,80.54-15.88,120.39-4.07-2.7-7.72-6.13-11.64-9,7.96-55.96,15.85-112.17,20.64-168.55.21-2.45,1.12-8.74-.53-10.32,3.12-3.59,5.92-7.62,8.47-11.64,1.42,1.4,1.86,3.29,3.18,4.76Z"/>
        <path class="cls-17" d="M322.28,93.38l42.34,46.57c-9.11,10.43-19.82,22.37-28.05,33.34-1.53-1.74-5.17-1.31-6.88-2.12l-6.35-69.06c-.25-2.71-5.55-6.93-3.18-9.26.45.2,1.56.42,2.12.53Z"/>
        <path class="cls-2" d="M477.87.24l-129.12,93.14c-2.43-3.17-7.04-6.86-9-11.11,39-24.29,80.7-54.65,120.39-76.2,5.9-3.2,10.61-6.47,17.73-5.82Z"/>
        <path class="cls-16" d="M348.74,93.38c8.84,11.52,16.78,23.86,27.52,33.87-3.84,4.24-7.88,8.4-11.64,12.7l-42.34-46.57c6.03-3.37,11.61-7.47,17.46-11.11,1.95,4.25,6.56,7.94,9,11.11Z"/>
        <path class="cls-16" d="M297.41,148.95c10.75-.74,25.08,18.85,32.28,22.23,1.71.8,5.35.37,6.88,2.12-7.22,9.62-18.15,25.74-21.7,37.04l-16.93-55.83"/>
        <path class="cls-4" d="M457.23,193.93c-6.93-5.05-14.39-9.55-21.17-14.82l21.43-68.8-72.24,25.4c-2.41-2.38-6.09-6.66-9-8.47,6.92-8.22,14.7-15.14,21.7-23.28,25.91-30.16,53.37-58.95,79.38-88.91,1.65,1.58.74,7.87.53,10.32-4.79,56.38-12.68,112.59-20.64,168.55Z"/>
        <path class="cls-16" d="M314.87,210.33c9.83-28.84,30.72-47.56,49.74-70.38l43.92,46.57c-5.16.76-10.8,2.26-16.41,1.59-3.96-3.95-6.13.5-10.85,2.12-7.05,2.42-14.33,4.55-21.43,6.88-11.59,3.8-23.3,7.47-34.93,11.11"/>
        <path class="cls-5" d="M436.06,179.11c-.17-.13-.89-.4-1.06-.53-15.99-12.47-35.46-28.79-49.74-42.87l72.24-25.4-21.43,68.8Z"/>
        <path class="cls-7" d="M385.26,135.72c14.28,14.08,33.76,30.4,49.74,42.87-7.22,2.56-17.86,7.72-25.14,9-.18.03-.79-1.14-1.32-1.06l-43.92-46.57c3.75-4.51,7.88-8.23,11.64-12.7,2.91,1.81,6.58,6.09,9,8.47Z"/>
        <g>
          <path class="cls-38" d="M392.14,188.11c6.99,6.98,12.8,21.22,21.7,27.52l70.38,56.62c.1,1.05-.05,2.36,0,3.18-16.73,2.48-35.97,1.28-52.39,4.23-.17.03-.36-.03-.53,0-18.58,3.67-55.79,27.48-75.68,35.99-1.26.17-2.28-.08-3.44-.53-14.5-5.59-29.64-16.01-44.45-21.7l-2.38,1.06c1.08-1.7,2.85-5.7,4.5-5.82,38.46,19.34,70.32,11.88,87.05-28.84,1.48-3.61,2.25-11.08,4.23-14.02l57.42,19.58-24.34-16.93c-5.51-4.38-14.53-7.56-19.84-11.11-.11-.07-.62.08-.53-.53l-53.98-39.69c7.1-2.33,14.38-4.46,21.43-6.88,4.71-1.61,6.89-6.07,10.85-2.12Z"/>
          <path class="cls-17" d="M436.06,179.11c6.78,5.27,14.24,9.77,21.17,14.82,3.93,2.86,7.57,6.3,11.64,9-.51,3.09,2.86,5.54,3.76,11.19-17.41-.21-41.21,1.44-58.79,1.51-8.9-6.3-14.7-20.54-21.7-27.52,5.61.67,11.25-.83,16.41-1.59.53-.08,1.14,1.09,1.32,1.06,7.28-1.28,17.91-6.44,25.14-9,.17.13.89.4,1.06.53Z"/>
          <path class="cls-7" d="M483.16,307.18c-.44,9.02-.74,18-1.59,26.99-1.35-1.26-2.95-.75-4.23-1.06-16.68-4.02-32.89-11.87-49.74-14.82.07-.99-1.13-1.86-1.06-2.91.12-1.8,1.42-5.65,1.59-7.94.69-9.37.36-18.73,3.18-27.78.17-.03.36.03.53,0l51.33,27.52Z"/>
          <path class="cls-16" d="M484.22,272.25l-70.38-56.62c17.58-.07,36.57-2.86,53.98-2.65,1.42.02,3.83-.48,4.76.79,2.87,19.36,9.82,39.06,11.64,58.48Z"/>
          <path class="cls-24" d="M484.22,275.42c.69,10.76-.54,21.03-1.06,31.75l-51.33-27.52c16.42-2.95,35.66-1.75,52.39-4.23Z"/>
          <path class="cls-24" d="M481.57,334.17c-.39,4.14.23,9.85-1.59,13.23-2.11.42-4.3.95-6.35,1.59l-23.81,6.09,27.52-21.96c1.29.31,2.88-.21,4.23,1.06Z"/>
          <path class="cls-7" d="M431.3,279.66c-2.81,9.06-2.48,18.41-3.18,27.78-.17,2.29-1.46,6.14-1.59,7.94-.07,1.05,1.12,1.92,1.06,2.91-1.01,15.07-2.19,30.19-3.18,45.25l10.58-1.85c-2.69.8-7.86,3.48-10.32,3.7-5.41.5-44.08-8.34-49.48-11.11-13.2-6.78-31.21-21.96-44.45-30.69,6.38-3.4,15.52-3.37,21.96-5.82.95-.36,2.73-2.04,2.91-2.12,19.89-8.5,57.1-32.32,75.68-35.99Z"/>
          <path class="cls-17" d="M355.62,315.64c-.18.08-1.96,1.76-2.91,2.12-6.44,2.45-15.58,2.43-21.96,5.82-6.74-4.44-24.22-17.75-30.16-20.11,1.56-2.94,2.99-6.19,4.76-9l2.38-1.06c14.81,5.68,29.95,16.1,44.45,21.7,1.16.45,2.18.7,3.44.53Z"/>
          <path class="cls-7" d="M401.13,245.79c1.96-2.9,9.97-6.75,13.23-8.47,5.31,3.55,14.33,6.74,19.84,11.11l24.34,16.93-57.42-19.58Z"/>
          <path class="cls-12" d="M477.34,333.11l-27.52,21.96,23.81-6.09c-12.92,4.03-25.66,8.83-38.63,12.7l-10.58,1.85c.99-15.06,2.16-30.17,3.18-45.25,16.85,2.95,33.07,10.8,49.74,14.82Z"/>
          <g>
            <path class="cls-45" d="M413.83,236.79c-.09.61.42.46.53.53-3.26,1.71-11.27,5.56-13.23,8.47s-2.75,10.41-4.23,14.02c-16.74,40.73-48.6,48.18-87.05,28.84-1.65.12-3.42,4.12-4.5,5.82-1.78,2.81-3.2,6.06-4.76,9-.42-.17-.63-.4-1.06-.53-2-26.62-.63-57.76,25.14-72.5,32.84-18.78,56.9.92,89.17,6.35Z"/>
            <g>
              <path class="cls-14" d="M351.39,281.78c-.09.08-.51.49-.53.53-5.34-1.47-10.56-6.46-13.23-11.12-.39-.68-2-3.35-2.12-3.7-1.25-3.9-.34-8.89-1.06-11.11,1.29-2.51,12.73-17.62,11.91-19.06-.17-.3-5.48-3.7-5.82-3.7-1.05,0-13.38,14.58-13.5,15.61-.25,2.29,3.13,2.62,3.71,4.5-7.12-4.13-14.76,6.31-20.64,10.05-2.15-21.27,21.97-32.08,39.43-34.92l1.85,52.92Z"/>
              <path class="cls-46" d="M330.75,253.73c.77.45,3.49,2,3.7,2.65.72,2.22-.19,7.22,1.06,11.11-7.19-.09-13.99,4.93-19.58,9-2.72-3.86-5.33-7.81-5.82-12.7,5.88-3.74,13.52-14.18,20.64-10.05Z"/>
              <path class="cls-37" d="M350.86,282.3c-.39.64-.27,12.32,2.65,11.64-10.15.83-19.21-1.68-27.52-7.41l11.64-15.35c2.67,4.66,7.89,9.65,13.23,11.11Z"/>
              <path class="cls-15" d="M388.96,260.61c-.53,5.57-2.58,9.7-5.29,14.29-4.46-4.41-13.12-5.39-19.05-7.94.81-2.68,1.65-9.34,1.59-12.17,8.71-2.24,14.76,4.4,22.76,5.82Z"/>
              <path class="cls-22" d="M387.9,247.91h-22.76c-.34-1.66-1.01-3.69-1.59-5.29,3.72-4.11,9.61-5.33,14.29-7.94,5.83,3.23,8.54,6.76,10.05,13.23Z"/>
              <path class="cls-37" d="M335.51,267.49c.11.36,1.72,3.02,2.12,3.7l-11.64,15.35c-3.97-2.73-7.28-6.11-10.05-10.05,5.59-4.06,12.39-9.09,19.58-9Z"/>
              <path class="cls-15" d="M383.67,274.9c-2.57,4.36-5.38,8.01-9.53,11.11l-12.17-13.76c.73-1.29,2.26-4.03,2.65-5.29,5.93,2.55,14.59,3.53,19.05,7.94Z"/>
              <path class="cls-47" d="M387.9,247.91c.99,4.23,1.48,8.23,1.06,12.7-8-1.42-14.04-8.06-22.76-5.82-.03-1.41-.73-5.28-1.06-6.88h22.76Z"/>
              <path class="cls-14" d="M355.62,229.34c4.63,0,19.15,3.63,22.23,5.33-4.68,2.61-10.57,3.83-14.29,7.94-1.59-4.45-4.66-8.72-7.14-12.7"/>
              <path class="cls-27" d="M334.45,256.37c-.21-.65-2.93-2.2-3.7-2.65-.58-1.88-3.96-2.21-3.7-4.5.11-1.03,12.46-15.62,13.49-15.61.34,0,5.65,3.4,5.82,3.7.82,1.44-10.62,16.54-11.91,19.05Z"/>
              <path class="cls-34" d="M374.14,286.01c-5.64,4.22-13.58,7.36-20.64,7.94-2.92.68-3.04-11-2.65-11.64.02-.03.44-.45.53-.53.16-.14,2.92-.63,3.97-1.59,2.29-2.09,5.11-5.27,6.61-7.94l12.17,13.76Z"/>
            </g>
          </g>
        </g>
      </g>
    </g>
    <path class="cls-31" d="M366.21,254.79c.13,4.3-.64,8.99-1.61,12.24-.11.36-2.21,4.53-2.62,5.22-1.66,2.74-5.34,9.53-10.58,9.53-.69-17.47-2.1-35.24-1.83-52.92,2.64.44,6.86,0,6.86,1.06.49.78,4.97,7.41,7.14,12.7,2.93,7.13,2.65,12.17,2.65,12.17Z"/>
  </g>
</svg>