<?xml version="1.0" encoding="UTF-8"?>
<svg id="Camada_1" xmlns="http://www.w3.org/2000/svg" version="1.1" viewBox="0 0 24 24">
  <!-- Generator: Adobe Illustrator 29.5.0, SVG Export Plug-In . SVG Version: 2.1.0 Build 137)  -->
  <defs>
    <style>
      .st0 {
        fill: #fff;
      }
    </style>
  </defs>
  <path class="st0" d="M7.5,18.01c0,.73.22,1.39.63,1.96-2.68-.17-5.13-1.15-5.13-2.96v-.88c1.05.82,2.6,1.37,4.5,1.55v.33ZM7.54,13.94s-.01.02-.01.03c-.02.1-.03.2-.03.3v1.91c-2.42-.28-4.5-1.24-4.5-2.91v-.88c1.05.83,2.61,1.38,4.53,1.55h0ZM11.44,10.28c-1.52.47-2.71,1.24-3.37,2.2-2.66-.17-5.07-1.15-5.07-2.95v-.68c1.31,1.03,3.41,1.63,6,1.63.87,0,1.69-.07,2.44-.2M15,8.85v.68c0,.09-.01.17-.02.25-.79,0-1.54.07-2.24.19.9-.27,1.66-.65,2.26-1.12M9,3c-3,0-6,1-6,2.99s3,2.99,6,2.99,6-.98,6-2.99-3-2.99-6-2.99M15,18.76c-2.51,0-4.65-.66-6-1.73v.98c0,1.99,3,2.99,6,2.99s6-1,6-2.99v-.98c-1.35,1.07-3.49,1.73-6,1.73M15,11.28c-3.31,0-6,1.34-6,2.99s2.69,2.99,6,2.99,6-1.34,6-2.99-2.69-2.99-6-2.99"/>
</svg>